<svg xmlns="http://www.w3.org/2000/svg" shape-rendering="geometricPrecision" text-rendering="geometricPrecision" image-rendering="optimizeQuality" fill-rule="evenodd" clip-rule="evenodd" viewBox="0 0 512 512"><g fill-rule="nonzero"><path fill="#999" d="M256 0c70.68 0 134.69 28.66 181.01 74.99C483.34 121.31 512 185.32 512 256c0 70.68-28.66 134.69-74.99 181.01C390.69 483.34 326.68 512 256 512c-70.68 0-134.69-28.66-181.01-74.99C28.66 390.69 0 326.68 0 256c0-70.68 28.66-134.69 74.99-181.01C121.31 28.66 185.32 0 256 0z"/><path fill="#fff" d="M255.99 19.48c65.31 0 124.46 26.48 167.25 69.27 42.79 42.79 69.28 101.93 69.28 167.24s-26.49 124.46-69.28 167.25c-42.79 42.79-101.94 69.28-167.25 69.28-65.23 0-124.38-26.51-167.18-69.33-42.84-42.74-69.33-101.89-69.33-167.2 0-65.31 26.48-124.45 69.27-167.24 42.79-42.79 101.93-69.27 167.24-69.27z"/><path fill="red" d="M119.93 424.25C70.96 384.58 39.59 323.9 39.59 255.99c0-67.95 31.34-128.59 80.34-168.26v336.52zM392.11 87.76c48.96 39.69 80.3 100.33 80.3 168.23 0 67.94-31.31 128.58-80.3 168.25V87.76zm-136.12 62.07-17.81 33.22c-2.03 3.61-5.64 3.28-9.27 1.27l-12.9-6.68 9.61 51.04c2.03 9.32-4.47 9.32-7.66 5.3l-22.51-25.21-3.66 12.8c-.42 1.67-2.28 3.45-5.05 3.02l-28.47-5.99 7.47 27.2c1.6 6.04 2.85 8.55-1.61 10.15l-10.15 4.76 49.01 39.82c1.93 1.5 2.91 4.21 2.22 6.66l-4.28 14.07c16.87-1.94 31.99-4.87 48.87-6.67 1.49-.16 3.99 2.29 3.98 4.02l-2.24 51.56h8.21l-1.3-51.45c0-1.73 2.26-4.29 3.75-4.13 16.88 1.8 31.99 4.72 48.87 6.67l-4.29-14.08c-.7-2.44.29-5.15 2.23-6.65l49-39.82-10.13-4.76c-4.47-1.6-3.22-4.11-1.62-10.15l7.48-27.2-28.48 5.99c-2.77.43-4.64-1.35-5.05-3.02l-3.66-12.8-22.52 25.21c-3.2 4.02-9.67 4.02-7.66-5.3l9.61-51.04-12.89 6.68c-3.63 2.01-7.25 2.34-9.26-1.27l-17.84-33.22z"/></g></svg>