<?xml version="1.0" encoding="utf-8"?>
<svg width="134px" height="36px" viewBox="0 0 134 36" version="1.1" xmlns:xlink="http://www.w3.org/1999/xlink" xmlns="http://www.w3.org/2000/svg">
  <defs>
    <linearGradient gradientUnits="objectBoundingBox" x1="-5.2154064E-08" y1="0.50000066" x2="1" y2="0.50000066" id="gradient_1">
      <stop offset="0%" stop-color="#097B8C" />
      <stop offset="100%" stop-color="#097B8F" />
    </linearGradient>
    <linearGradient gradientUnits="objectBoundingBox" x1="-0.13642836" y1="0.9910854" x2="0.72943056" y2="-0.008873105" id="gradient_2">
      <stop offset="0%" stop-color="#34A853" />
      <stop offset="100%" stop-color="#34A85F" />
    </linearGradient>
    <linearGradient gradientUnits="objectBoundingBox" x1="0.77334464" y1="0.95836806" x2="0.16906595" y2="-0.0416736" id="gradient_3">
      <stop offset="0%" stop-color="#F2FDD8" />
      <stop offset="100%" stop-color="#F2FDDF" />
    </linearGradient>
    <path d="M134 0L134 0L134 36L0 36L0 0L134 0Z" id="path_1" />
    <path d="M30 0L30 0L30 30L0 30L0 0L30 0Z" id="path_2" />
    <clipPath id="clip_1">
      <use xlink:href="#path_1" clip-rule="evenodd" fill-rule="evenodd" />
    </clipPath>
    <clipPath id="clip_2">
      <use xlink:href="#path_2" clip-rule="evenodd" fill-rule="evenodd" />
    </clipPath>
  </defs>
  <g id="Frame" clip-path="url(#clip_1)">
    <path d="M134 0L134 0L134 36L0 36L0 0L134 0Z" id="Frame" fill="#FFFFFF" stroke="none" />
    <g id="supermium flat" clip-path="url(#clip_2)" transform="translate(3.6677551 3.5246582)">
      <path d="M30 0L30 0L30 30L0 30L0 0L30 0Z" id="supermium-flat" fill="none" stroke="none" />
      <path d="M7.5 14.9967C7.5 10.8545 10.8579 7.49667 15 7.49667C19.1421 7.49667 22.5 10.8545 22.5 14.9967C22.5 19.1388 19.1421 22.4967 15 22.4967C10.8579 22.4967 7.5 19.1388 7.5 14.9967Z" id="Circle" fill="#FFFFFF" fill-rule="evenodd" stroke="none" />
      <path d="M2.00965 22.5C5.04312 27.7541 10.9429 30.6636 16.9579 29.8717C22.973 29.0798 27.9187 24.7425 29.4889 18.8823C31.0592 13.0221 28.9447 6.793 24.1314 3.09969C19.3182 -0.59362 12.7541 -1.02385 7.50002 2.00963C0.325641 6.15177 -2.13248 15.3256 2.00965 22.5L2.00965 22.5ZM21.4952 11.25C23.012 13.8771 22.7968 17.1591 20.9502 19.5657C19.1035 21.9723 15.989 23.0296 13.0589 22.2444C10.1288 21.4593 7.96014 18.9865 7.56419 15.9789C7.16824 12.9714 8.62297 10.0215 11.25 8.50481C14.8372 6.43374 19.4241 7.66281 21.4952 11.25L21.4952 11.25Z" id="Shape" fill="none" fill-rule="evenodd" stroke="none" />
      <path d="M15 7.5L27.9882 7.5C25.3095 2.85875 20.3578 -0.000403643 14.999 -3.05176e-05C9.6402 0.000342608 4.68886 2.86019 2.0108 7.50181L8.50493 18.75L8.51074 18.7485C7.16611 16.4298 7.1629 13.5693 8.50231 11.2476C9.84172 8.92582 12.3196 7.49669 15 7.5L15 7.5Z" id="Shape" fill="url(#gradient_1)" stroke="none" />
      <path d="M9.0625 15C9.0625 11.7208 11.7208 9.0625 15 9.0625C18.2792 9.0625 20.9375 11.7208 20.9375 15C20.9375 18.2792 18.2792 20.9375 15 20.9375C11.7208 20.9375 9.0625 18.2792 9.0625 15Z" id="Circle" fill="#1A73E8" fill-rule="evenodd" stroke="none" />
      <path d="M21.4946 18.7518L15.0005 30C20.3592 30.0007 25.3111 27.142 27.9902 22.5009C30.6692 17.8599 30.6682 12.142 27.9875 7.50195L14.9993 7.50195L14.9978 7.50777C17.6782 7.5026 20.157 8.93003 21.498 11.2509C22.839 13.5717 22.8377 16.4322 21.4946 18.7518L21.4946 18.7518Z" id="Shape" fill="url(#gradient_2)" stroke="none" />
      <path d="M8.50537 18.7519L2.01125 7.50375C-0.668817 12.1442 -0.669028 17.8621 2.01069 22.5028C4.69041 27.1435 9.64277 30.0015 15.0016 30L21.4957 18.7518L21.4915 18.7476C20.1557 21.0714 17.6801 22.5044 14.9997 22.5053C12.3193 22.5062 9.8427 21.0749 8.50538 18.7519L8.50537 18.7519Z" id="Shape" fill="url(#gradient_3)" stroke="none" />
    </g>
    <g id="supermium" transform="translate(37 7)">
      <g id="supermium" fill="#757575">
        <path d="M4.41 17.316Q3.456 17.316 2.709 17.028Q1.962 16.74 1.449 16.254Q0.936 15.768 0.684 15.156L2.16 14.508Q2.448 15.066 3.024 15.426Q3.6 15.786 4.302 15.786Q5.076 15.786 5.58 15.498Q6.084 15.21 6.084 14.688Q6.084 14.184 5.706 13.896Q5.328 13.608 4.608 13.428L3.762 13.212Q2.502 12.87 1.809 12.186Q1.116 11.502 1.116 10.638Q1.116 9.324 1.962 8.604Q2.808 7.884 4.464 7.884Q5.274 7.884 5.949 8.118Q6.624 8.352 7.101 8.784Q7.578 9.216 7.776 9.81L6.336 10.458Q6.12 9.918 5.598 9.657Q5.076 9.396 4.374 9.396Q3.654 9.396 3.24 9.711Q2.826 10.026 2.826 10.584Q2.826 10.89 3.177 11.169Q3.528 11.448 4.212 11.628L5.184 11.862Q6.066 12.078 6.642 12.519Q7.218 12.96 7.506 13.509Q7.794 14.058 7.794 14.652Q7.794 15.462 7.353 16.065Q6.912 16.668 6.147 16.992Q5.382 17.316 4.41 17.316ZM15.696 17.1L15.588 15.444L15.588 8.1L17.28 8.1L17.28 17.1L15.696 17.1ZM9.36 13.248L9.36 8.1L11.07 8.1L11.07 12.708L9.36 13.248ZM11.07 12.708Q11.07 13.914 11.349 14.562Q11.628 15.21 12.132 15.462Q12.636 15.714 13.266 15.732Q14.364 15.732 14.976 14.958Q15.588 14.184 15.588 12.78L16.326 12.78Q16.326 14.202 15.912 15.219Q15.498 16.236 14.715 16.776Q13.932 17.316 12.834 17.316Q11.214 17.316 10.287 16.308Q9.36 15.3 9.36 13.248L11.07 12.708ZM19.764 20.7L19.764 8.1L21.366 8.1L21.474 9.756L21.474 20.7L19.764 20.7ZM24.426 17.316Q23.292 17.316 22.455 16.722Q21.618 16.128 21.168 15.066Q20.718 14.004 20.718 12.6Q20.718 11.178 21.168 10.125Q21.618 9.072 22.455 8.478Q23.292 7.884 24.426 7.884Q25.632 7.884 26.55 8.478Q27.468 9.072 27.981 10.125Q28.494 11.178 28.494 12.6Q28.494 14.004 27.981 15.066Q27.468 16.128 26.55 16.722Q25.632 17.316 24.426 17.316ZM24.012 15.768Q24.822 15.768 25.434 15.363Q26.046 14.958 26.397 14.247Q26.748 13.536 26.748 12.6Q26.748 11.664 26.406 10.953Q26.064 10.242 25.452 9.837Q24.84 9.432 24.03 9.432Q23.292 9.432 22.707 9.837Q22.122 10.242 21.798 10.962Q21.474 11.682 21.474 12.6Q21.474 13.536 21.798 14.247Q22.122 14.958 22.698 15.363Q23.274 15.768 24.012 15.768ZM34.344 17.316Q33.03 17.316 32.022 16.713Q31.014 16.11 30.438 15.048Q29.862 13.986 29.862 12.6Q29.862 11.214 30.438 10.152Q31.014 9.09 32.031 8.487Q33.048 7.884 34.362 7.884Q35.586 7.884 36.531 8.505Q37.476 9.126 38.007 10.269Q38.538 11.412 38.538 12.96L36.828 12.96Q36.846 11.808 36.549 11.016Q36.252 10.224 35.685 9.819Q35.118 9.414 34.326 9.414Q33.48 9.414 32.868 9.801Q32.256 10.188 31.923 10.899Q31.59 11.61 31.59 12.636Q31.59 13.59 31.968 14.283Q32.346 14.976 32.994 15.363Q33.642 15.75 34.47 15.75Q35.352 15.75 35.937 15.336Q36.522 14.922 36.864 14.274L38.394 14.976Q38.034 15.678 37.458 16.209Q36.882 16.74 36.099 17.028Q35.316 17.316 34.344 17.316ZM30.978 12.96L30.996 11.556L37.584 11.556L37.584 12.96L30.978 12.96ZM41.274 12.258Q41.274 10.8 41.832 9.882Q42.39 8.964 43.272 8.514Q44.154 8.064 45.126 8.064L45.126 9.684Q44.316 9.684 43.587 9.927Q42.858 10.17 42.399 10.719Q41.94 11.268 41.94 12.204L41.274 12.258ZM40.23 17.1L40.23 8.1L41.94 8.1L41.94 17.1L40.23 17.1ZM46.512 17.1L46.512 8.1L48.114 8.1L48.222 9.756L48.222 17.1L46.512 17.1ZM52.74 17.1L52.74 12.492L54.45 11.952L54.45 17.1L52.74 17.1ZM58.968 17.1L58.968 12.492L60.66 11.952L60.66 17.1L58.968 17.1ZM52.74 12.492Q52.74 11.268 52.461 10.629Q52.182 9.99 51.687 9.738Q51.192 9.486 50.544 9.468Q49.446 9.468 48.834 10.242Q48.222 11.016 48.222 12.42L47.484 12.42Q47.484 10.998 47.898 9.981Q48.312 8.964 49.095 8.424Q49.878 7.884 50.976 7.884Q52.596 7.884 53.523 8.883Q54.45 9.882 54.45 11.952L52.74 12.492ZM58.968 12.492Q58.968 11.268 58.68 10.629Q58.392 9.99 57.906 9.738Q57.42 9.486 56.772 9.468Q55.674 9.468 55.062 10.242Q54.45 11.016 54.45 12.42L53.712 12.42Q53.712 10.998 54.126 9.981Q54.54 8.964 55.323 8.424Q56.106 7.884 57.204 7.884Q58.824 7.884 59.751 8.883Q60.678 9.882 60.66 11.952L58.968 12.492ZM62.946 17.1L62.982 8.1L64.674 8.1L64.656 17.1L62.946 17.1ZM63.81 6.192Q63.396 6.192 63.09 5.877Q62.784 5.562 62.784 5.148Q62.784 4.716 63.09 4.419Q63.396 4.122 63.81 4.122Q64.242 4.122 64.539 4.419Q64.836 4.716 64.836 5.148Q64.836 5.562 64.539 5.877Q64.242 6.192 63.81 6.192ZM73.278 17.1L73.17 15.444L73.17 8.1L74.862 8.1L74.862 17.1L73.278 17.1ZM66.942 13.248L66.942 8.1L68.652 8.1L68.652 12.708L66.942 13.248ZM68.652 12.708Q68.652 13.914 68.931 14.562Q69.21 15.21 69.714 15.462Q70.218 15.714 70.848 15.732Q71.946 15.732 72.558 14.958Q73.17 14.184 73.17 12.78L73.908 12.78Q73.908 14.202 73.494 15.219Q73.08 16.236 72.297 16.776Q71.514 17.316 70.416 17.316Q68.796 17.316 67.869 16.308Q66.942 15.3 66.942 13.248L68.652 12.708ZM77.256 17.1L77.256 8.1L78.858 8.1L78.966 9.756L78.966 17.1L77.256 17.1ZM83.484 17.1L83.484 12.492L85.194 11.952L85.194 17.1L83.484 17.1ZM89.712 17.1L89.712 12.492L91.404 11.952L91.404 17.1L89.712 17.1ZM83.484 12.492Q83.484 11.268 83.205 10.629Q82.926 9.99 82.431 9.738Q81.936 9.486 81.288 9.468Q80.19 9.468 79.578 10.242Q78.966 11.016 78.966 12.42L78.228 12.42Q78.228 10.998 78.642 9.981Q79.056 8.964 79.839 8.424Q80.622 7.884 81.72 7.884Q83.34 7.884 84.267 8.883Q85.194 9.882 85.194 11.952L83.484 12.492ZM89.712 12.492Q89.712 11.268 89.424 10.629Q89.136 9.99 88.65 9.738Q88.164 9.486 87.516 9.468Q86.418 9.468 85.806 10.242Q85.194 11.016 85.194 12.42L84.456 12.42Q84.456 10.998 84.87 9.981Q85.284 8.964 86.067 8.424Q86.85 7.884 87.948 7.884Q89.568 7.884 90.495 8.883Q91.422 9.882 91.404 11.952L89.712 12.492Z" />
      </g>
    </g>
  </g>
</svg>